<svg width="36px" height="35px" viewBox="0 0 36 35" version="1.1" xmlns="http://www.w3.org/2000/svg" xmlns:xlink="http://www.w3.org/1999/xlink">
    <defs>
        <polygon id="path-1" points="0.142842857 0.160475 17.1427714 0.160475 17.1427714 35 0.142842857 35"></polygon>
    </defs>
    <g id="Symbols" stroke="none" stroke-width="1" fill="none" fill-rule="evenodd">
        <g id="Mobile-Nav-Bar" transform="translate(-152.000000, -11.000000)">
            <g id="Group-8" transform="translate(152.600000, 11.000000)">
                <g id="Group-3" transform="translate(18.000000, 0.000000)">
                    <mask id="mask-2" fill="white">
                        <use xlink:href="#path-1"></use>
                    </mask>
                    <g id="Clip-2"></g>
                    <path d="M0.914271429,0.160475 L16.3715571,0.160475 C16.7975571,0.160475 17.1427714,0.5131 17.1427714,0.947975 L17.1427714,30.0001625 C17.1427714,30.3385688 16.9310571,30.63935 16.6164857,30.7467563 L4.30234286,34.9585688 C3.80262857,35.1296313 3.28577143,34.7501 3.28577143,34.211975 L3.28577143,5.24881875 C3.28577143,4.909975 3.49834286,4.608975 3.81312857,4.5017875 L13.3572,1.254225 L1.14291429,1.254225 L1.14291429,29.691725 L3.07148571,29.6551938 L3.07148571,30.7489438 L0.933128571,30.8023188 C0.499842857,30.8128188 0.142842857,30.45735 0.142842857,30.0150375 L0.142842857,0.947975 C0.142842857,0.5131 0.488271429,0.160475 0.914271429,0.160475" id="Fill-1" fill="#FFFFFF" mask="url(#mask-2)"></path>
                </g>
                <polygon id="Fill-4" fill="#FFFFFF" points="16.2857143 11.8126828 10.861699 7.875 10.861699 10.1675642 0 10.1675642 0 13.4578014 10.861699 13.4578014 10.861699 15.75"></polygon>
                <polygon id="Fill-6" fill="#FFFFFF" points="0 21.4375 5.42430612 25.375 5.42430612 23.0825422 16.2857143 23.0825422 16.2857143 19.7924578 5.42430612 19.7924578 5.42430612 17.5"></polygon>
            </g>
        </g>
    </g>
</svg>
