<?xml version="1.0" encoding="UTF-8"?>
<svg width="181px" height="93px" viewBox="0 0 181 93" version="1.1" xmlns="http://www.w3.org/2000/svg" xmlns:xlink="http://www.w3.org/1999/xlink">
    <!-- Generator: Sketch 53.2 (72643) - https://sketchapp.com -->
    <title>FIG Icon with Arrow</title>
    <desc>Created with Sketch.</desc>
    <defs>
        <linearGradient x1="50%" y1="97.8054592%" x2="50.5636581%" y2="12.2856786%" id="linearGradient-1">
            <stop stop-color="#D9D9D9" offset="0%"></stop>
            <stop stop-color="#DEDEDE" offset="100%"></stop>
        </linearGradient>
        <linearGradient x1="95.44472%" y1="41.458376%" x2="14.0375434%" y2="41.458376%" id="linearGradient-2">
            <stop stop-color="#D8D8D8" offset="0%"></stop>
            <stop stop-color="#F6F6F6" offset="100%"></stop>
        </linearGradient>
        <linearGradient x1="50%" y1="0%" x2="50%" y2="100%" id="linearGradient-3">
            <stop stop-color="#EEEEEE" offset="0%"></stop>
            <stop stop-color="#D8D8D8" offset="100%"></stop>
        </linearGradient>
        <linearGradient x1="50%" y1="11.153358%" x2="49.5428603%" y2="92.9742891%" id="linearGradient-4">
            <stop stop-color="#EEEEEE" offset="0%"></stop>
            <stop stop-color="#D8D8D8" offset="100%"></stop>
        </linearGradient>
        <linearGradient x1="2.14021018%" y1="77.2795091%" x2="71.9276048%" y2="32.9641159%" id="linearGradient-5">
            <stop stop-color="#EEEEEE" offset="0%"></stop>
            <stop stop-color="#D8D8D8" offset="100%"></stop>
        </linearGradient>
        <linearGradient x1="50%" y1="0%" x2="50%" y2="100%" id="linearGradient-6">
            <stop stop-color="#F5F5F5" offset="0%"></stop>
            <stop stop-color="#D4D4D4" offset="100%"></stop>
        </linearGradient>
        <linearGradient x1="50%" y1="0%" x2="50%" y2="100%" id="linearGradient-7">
            <stop stop-color="#D3CFCF" offset="0%"></stop>
            <stop stop-color="#F5F5F5" offset="100%"></stop>
        </linearGradient>
        <linearGradient x1="100%" y1="50%" x2="0.884971856%" y2="50%" id="linearGradient-8">
            <stop stop-color="#F9F9F9" offset="0%"></stop>
            <stop stop-color="#D0D0D0" offset="100%"></stop>
        </linearGradient>
        <linearGradient x1="100%" y1="50%" x2="0.884971856%" y2="50%" id="linearGradient-9">
            <stop stop-color="#F9F9F9" offset="0%"></stop>
            <stop stop-color="#D0D0D0" offset="100%"></stop>
        </linearGradient>
        <linearGradient x1="60.7782028%" y1="27.3019122%" x2="51.2899781%" y2="82.1719269%" id="linearGradient-10">
            <stop stop-color="#DEDCDC" offset="0%"></stop>
            <stop stop-color="#B3B3B3" offset="100%"></stop>
        </linearGradient>
        <radialGradient cx="50%" cy="43.6833457%" fx="50%" fy="43.6833457%" r="61.4598834%" gradientTransform="translate(0.500000,0.436833),scale(0.776544,1.000000),rotate(90.000000),translate(-0.500000,-0.436833)" id="radialGradient-11">
            <stop stop-color="#585050" offset="0%"></stop>
            <stop stop-color="#DEDCDC" offset="100%"></stop>
        </radialGradient>
        <radialGradient cx="50%" cy="33.0197704%" fx="50%" fy="33.0197704%" r="70.1052296%" gradientTransform="translate(0.500000,0.330198),scale(0.822524,1.000000),rotate(90.000000),translate(-0.500000,-0.330198)" id="radialGradient-12">
            <stop stop-color="#423F3F" offset="0%"></stop>
            <stop stop-color="#AFADAD" offset="100%"></stop>
        </radialGradient>
        <path d="M153.029935,61.4768421 L161.348163,48.1378947 C161.955935,46.5842105 160.374206,47.2839355 158.622252,47.7470335 L153.479186,49.425293 C152.901415,45.6852239 152.581265,42.9526392 152.518737,41.2275391 C152.410344,38.2370771 152.346911,34.1602419 152.328438,28.9970335 C152.265261,28.0496651 153.653322,26.1455078 153.149047,26.1455078 L147.928437,26.1455078 C147.424161,26.1455078 148.754766,28.0496651 148.691588,28.9970335 C148.73481,34.2836299 148.73481,38.3604651 148.691588,41.2275391 C148.663722,43.0760273 148.409338,45.8086119 147.928437,49.425293 L142.339538,47.7470335 C140.540587,47.0634398 139.002437,46.5842105 139.610209,48.1378947 L147.928437,61.4768421 C148.489721,62.1093172 149.570912,64.8402114 150.471045,64.8862305 C151.512443,64.9394717 152.380563,62.2085775 153.029935,61.4768421 Z" id="path-13"></path>
        <filter x="-13.6%" y="-7.7%" width="118.2%" height="110.3%" filterUnits="objectBoundingBox" id="filter-14">
            <feOffset dx="-1" dy="-1" in="SourceAlpha" result="shadowOffsetOuter1"></feOffset>
            <feGaussianBlur stdDeviation="0.5" in="shadowOffsetOuter1" result="shadowBlurOuter1"></feGaussianBlur>
            <feColorMatrix values="0 0 0 0 0.429398774   0 0 0 0 0.535948822   0 0 0 0 0.369700521  0 0 0 1 0" type="matrix" in="shadowBlurOuter1"></feColorMatrix>
        </filter>
    </defs>
    <g id="FIG-Icon-with-Arrow" stroke="none" stroke-width="1" fill="none" fill-rule="evenodd">
        <g transform="translate(0.000000, 0.000000)">
            <g id="Fig-Icon">
                <path d="M20.354186,17.362793 C21.5246345,14.2572574 22.4696215,12.1547997 23.1891469,11.0554199 C23.9086724,9.95604013 24.7647922,9.30654468 25.7575063,9.10693359 L18.219649,78.9966489 L12.2194204,78.9966489 C13.4520134,61.9016202 14.6247022,49.1385448 15.7374868,40.7074227 C16.8502713,32.2763006 18.3891711,24.4947573 20.354186,17.362793 Z" id="Rectangle" fill="url(#linearGradient-1)"></path>
                <path d="M12.2194204,79 L18.2160713,78.9966489 L18.479186,93 C16.9626784,92.5780431 15.8077191,92.0093583 15.0143081,91.2939453 C14.220897,90.5785324 13.2892678,89.0919601 12.2194204,86.8342285 C11.6300649,85.1589355 11.4675486,83.2982076 11.7318715,81.2520445 C11.9961945,79.2058815 12.1587107,78.4552 12.2194204,79 Z" id="Rectangle" fill="#D9D9D9"></path>
                <polygon id="Rectangle" fill="url(#linearGradient-2)" points="128.479186 83 173.479186 83 173.29425 92.6977539 128.479186 93"></polygon>
                <g id="Group" transform="translate(17.979186, 0.000000)">
                    <polygon id="Rectangle" fill="#F5F5F5" points="109.569336 7.99703351 148.94043 7.99703351 155.129169 82.9970335 112.181152 82.9970335"></polygon>
                    <path d="M100.497226,0.656535104 L110.192499,7.43266253 C110.701625,7.78849586 111.016521,8.36068561 111.044712,8.98119483 L114.313653,80.9337125 C114.363784,82.0371438 113.509916,82.9722908 112.406485,83.0224218 C111.904162,83.0452433 111.411675,82.8780095 111.027116,82.5540296 L98.7027124,72.1710795 C98.2566492,71.7952843 97.9968586,71.2434909 97.9913987,70.6602546 L97.351588,2.31455958 C97.3412481,1.21003848 98.2282573,0.306265105 99.3327784,0.295925252 C99.7489955,0.292028881 100.156058,0.418089322 100.497226,0.656535104 Z" id="Rectangle" fill="url(#linearGradient-3)"></path>
                    <path d="M149.663181,7.46554179 L152.471974,6.41675663 C153.506771,6.03037686 154.658863,6.55602328 155.045243,7.59082076 C155.058726,7.62693222 155.071163,7.66342593 155.082538,7.70025616 C155.387563,8.68792844 155.582056,9.36263146 155.666016,9.72436523 C155.798376,10.2946287 155.907751,11.1715818 155.994141,12.3552246 L161.905762,67.7961426 L162.265075,75.2375522 C162.283909,75.6276025 162.188144,76.0146337 161.989595,76.3508958 L158.307458,82.5869494 C157.745849,83.5380898 156.519522,83.8538668 155.568382,83.2922569 C155.011627,82.9635157 154.648141,82.3859029 154.592647,81.7417234 L148.370157,9.51085062 C148.293077,8.61610066 148.821852,7.77968291 149.663181,7.46554179 Z" id="Rectangle" fill="url(#linearGradient-4)"></path>
                    <path d="M9.21224233,8.50282785 C63.2840231,3.07564965 92.1868478,0.362060547 95.9207163,0.362060547 C97.2610342,0.362060547 98.3497912,0.346814285 99.1869875,0.316321761 L99.1869881,0.316339714 C100.290816,0.276135889 101.218237,1.13837337 101.25844,2.24220104 C101.259324,2.26645614 101.259766,2.29072532 101.259766,2.3149965 L101.259766,72.2753681 C101.259766,73.3242793 100.449418,74.1949881 99.4032086,74.2702175 L2.38032819,81.2468073 C1.27860329,81.3260287 0.321257208,80.4971258 0.242035867,79.3954009 C0.233626713,79.2784554 0.235517468,79.160997 0.247686287,79.0443828 L7.42279246,10.2852413 C7.52122303,9.34197787 8.26859845,8.59754127 9.21224233,8.50282785 Z" id="Rectangle" fill="url(#linearGradient-5)"></path>
                    <polygon id="Rectangle" fill="url(#linearGradient-6)" points="111 7.99703351 148.239746 7.99703351 150.967773 37.9970335 112.374023 37.9970335"></polygon>
                    <polygon id="Rectangle" fill="#333333" points="112.604479 37.9970335 150.967773 37.9970335 151.399658 45.4970335 112.604479 45.4970335"></polygon>
                    <polygon id="Rectangle" fill="url(#linearGradient-7)" points="112.604479 45.4970335 151.399658 45.4970335 155 82.9970335 112 82.9970335"></polygon>
                </g>
                <polygon id="Rectangle" fill="url(#linearGradient-8)" points="17.979186 85.592041 129.979186 85.592041 129.627013 93 17.979186 93"></polygon>
                <path d="M17.979186,79 C78.3885836,72.8746745 111.312574,70.7654622 116.751159,72.6723633 C122.189743,74.5792643 126.599085,76.6884766 129.979186,79 L129.979186,86 L17.979186,86 L17.979186,79 Z" id="Rectangle-Copy" fill="url(#linearGradient-9)"></path>
                <path d="M172.979186,82.5 L180.246589,76.1210938 C180.562196,79.7158422 180.562196,82.4119685 180.246589,84.2094727 C179.930983,86.0069768 179.059703,88.1679469 177.63275,90.6923828 C176.369334,91.6139729 175.484813,92.1491291 174.979186,92.2978516 C174.473559,92.446574 173.849949,92.5798748 173.108355,92.6977539 L172.979186,82.5 Z" id="Rectangle" fill="#D8D8D8"></path>
                <ellipse id="Oval" fill="#454545" cx="139.662291" cy="13.3227539" rx="1.5" ry="1"></ellipse>
                <ellipse id="Oval-Copy" fill="#454545" cx="149.018737" cy="13.3227539" rx="1.5" ry="1"></ellipse>
                <ellipse id="Oval-Copy-2" fill="#454545" cx="158.375182" cy="13.3227539" rx="1.5" ry="1"></ellipse>
                <path d="M5.60833639,32.6296997 C7.09537049,32.0996954 7.93057557,31.8045904 8.11395163,31.7443848 C9.80744769,31.1883797 10.6610708,31.1883797 12.2194204,30.6330566 C12.5494327,30.5154557 14.1287315,30.5923555 16.0800781,29.8508301 C16.5338239,29.6784035 17.1668599,29.2129901 17.979186,28.4545898 L14.4987173,52.5656738 C13.7049096,51.6793031 12.4256941,50.7828187 10.6610708,49.8762207 C9.38659739,49.2214436 6.11474063,48.523475 3.61004538,47.5991211 C2.44948223,47.1708171 1.74273581,46.7122396 1.48980612,46.2233887 C0.782157752,45.2992087 0.341850135,44.3419333 0.168883267,43.3515625 C0.0305467052,42.5594773 0.141244438,41.3372264 0.168883267,40.7227397 C0.219555779,39.5961514 0.529381183,37.0741158 1.96636862,35.3181152 C2.34181106,34.8593241 2.9554257,34.1017161 3.87951559,33.475708 C4.2047072,33.2554128 4.7809808,32.97341 5.60833639,32.6296997 Z" id="Rectangle" fill="#DEDCDC"></path>
                <path d="M0.100785154,43.2344971 C0.725763234,44.9940187 2.19678617,46.5197755 4.51385397,47.8117676 C5.93766669,48.6056825 8.83142572,48.7937801 11.137145,49.9267578 C12.1015019,50.4006208 13.222026,51.2802594 14.4987173,52.5656738 L13.479186,63 C12.2747859,61.5841305 11.2560685,60.6917151 10.4230337,60.3227539 C9.33742124,59.841923 7.69215335,59.3490546 6.65893555,58.8063965 C3.81921387,57.3149414 2.86401367,55.5975342 1.73376465,53.666626 C1.41361486,53.1196847 1.34520195,52.7095172 1.19506836,52.2548828 C0.862525891,51.2478781 0.694462023,50.232516 0.502685547,48.5140381 C0.396940966,47.5664781 0.262974168,45.8066311 0.100785154,43.2344971 Z" id="Rectangle" fill="url(#linearGradient-10)"></path>
                <ellipse id="Oval" fill="url(#radialGradient-11)" cx="9.46237132" cy="40.135437" rx="5.96365407" ry="4.63104248"></ellipse>
                <ellipse id="Oval-Copy-3" fill="url(#radialGradient-12)" cx="9.22201488" cy="39.9659424" rx="3.72329762" ry="3.0625"></ellipse>
            </g>
            <g id="Arrow" fill-rule="nonzero" transform="translate(150.477936, 45.516253) rotate(-1.000000) translate(-150.477936, -45.516253) ">
                <use fill="black" fill-opacity="1" filter="url(#filter-14)" xlink:href="#path-13"></use>
                <use fill="#71FE22" xlink:href="#path-13"></use>
            </g>
        </g>
    </g>
</svg>