
<svg width="296px" height="77px" viewBox="0 0 296 77" version="1.1" xmlns="http://www.w3.org/2000/svg" xmlns:xlink="http://www.w3.org/1999/xlink">
    <g id="Mobile-(Designed)" stroke="none" stroke-width="1" fill="none" fill-rule="evenodd">
        <g id="Launch-Screen" transform="translate(-55.000000, -212.000000)">
            <g id="Logo---Roboto" transform="translate(56.000000, 212.000000)">
                <path d="M31.0829516,34.3703618 L18.4456169,34.3703618 L14.9397756,41.7625232 L4.6940225,41.7625232 L25.6475388,2.192718 L34.3985535,2.192718 L41.7091837,41.7625232 L32.0341489,41.7625232 L31.0829516,34.3703618 Z M21.9242811,27.0053774 L30.1317544,27.0053774 L28.3924223,13.3624913 L21.9242811,27.0053774 Z" id="A-Copy-2" fill="#FFFFFF"></path>
                <path d="M138.091554,63.2742564 C138.326727,62.0663205 137.674666,61.1309859 136.135349,60.4682246 L133.505696,59.3778808 C129.81775,57.7209775 128.064666,55.4654849 128.246391,52.6113354 C128.321219,51.3071921 128.770179,50.1447049 129.593286,49.1238386 C130.416393,48.1029724 131.554829,47.3092742 133.008628,46.7427202 C134.462427,46.1761661 136.049823,45.9035829 137.770865,45.9249623 C140.07984,45.9677211 141.937147,46.641162 143.342842,47.9453053 C144.748538,49.2494485 145.440685,50.997188 145.419306,53.1885762 L139.967587,53.1885762 C139.999656,52.2906415 139.809917,51.5717701 139.398363,51.0319403 C138.98681,50.4921105 138.310697,50.2115101 137.370003,50.1901307 C136.450689,50.1687513 135.638284,50.3825421 134.932764,50.8315095 C134.227244,51.2804768 133.810352,51.8844357 133.682075,52.6434043 C133.478971,53.7123742 134.272669,54.5889163 136.063194,55.273057 C137.853718,55.9571977 139.15517,56.5451223 139.967587,57.0368485 C142.522425,58.5654754 143.719653,60.6285563 143.559308,63.226153 C143.47379,64.5730551 143.040864,65.754249 142.260516,66.7697704 C141.480168,67.7852918 140.397852,68.5709728 139.013536,69.1268372 C137.62922,69.6827015 136.076565,69.94994 134.355523,69.9285606 C133.094139,69.9071812 131.923634,69.7094247 130.843975,69.3352853 C129.764315,68.9611458 128.83967,68.4159793 128.070012,67.6997695 C126.509316,66.2566602 125.761048,64.3592672 125.825186,62.0075335 L131.325009,62.0235679 C131.260871,63.2208142 131.490696,64.1267526 132.014491,64.7414102 C132.538286,65.3560679 133.420173,65.6633921 134.660178,65.6633921 C135.579492,65.6633921 136.346466,65.4522738 136.961124,65.0300307 C137.575782,64.6077876 137.952588,64.0225353 138.091554,63.2742564 Z M153.099816,61.9594301 L157.589467,52.2425426 L163.409979,52.2425426 L153.244126,72.1894205 C152.485158,73.7608062 151.611288,74.8965697 150.622491,75.5967449 C149.633694,76.2969202 148.455172,76.6470026 147.086891,76.6470026 C146.477578,76.6470026 145.702586,76.5294176 144.761893,76.2942443 L145.162754,72.4299375 L145.772064,72.4299375 C146.424136,72.4299375 146.996026,72.3257145 147.487752,72.1172654 C147.979478,71.9088163 148.391026,71.5052862 148.722406,70.9066631 L149.476026,69.463561 L146.702063,52.2425426 L152.153782,52.2425426 L153.099816,61.9594301 Z M171.571523,64.6211517 C171.710489,63.9156316 171.165322,63.3864995 169.936007,63.0337394 L168.79756,62.745119 C166.937552,62.2533929 165.574636,61.5639176 164.708771,60.6766727 C163.842905,59.7894277 163.436703,58.7365082 163.490151,57.5178825 C163.5436,55.8502895 164.28385,54.4953905 165.710925,53.4531449 C167.138,52.4108993 168.877722,51.9004739 170.930144,51.9218533 C172.971877,51.9432327 174.626083,52.4616753 175.892812,53.4771966 C177.159541,54.492718 177.803586,55.8609789 177.824965,57.5820204 L172.56566,57.5659859 C172.608419,56.1977045 172.00446,55.513574 170.753765,55.513574 C170.21928,55.513574 169.722216,55.6712447 169.262559,55.9865908 C168.802902,56.3019369 168.530319,56.7215013 168.444802,57.2452966 C168.263077,58.1111621 169.027379,58.7044315 170.73773,59.0251225 C172.223599,59.3778825 173.372724,59.7867574 174.185141,60.2517593 C174.997558,60.7167612 175.617551,61.2913238 176.045139,61.9754645 C176.472727,62.6596053 176.670484,63.4826997 176.638415,64.4447726 C176.606346,65.492363 176.26428,66.4276976 175.612209,67.2508044 C174.960137,68.0739112 174.016785,68.7313178 172.782125,69.223044 C171.547465,69.7147701 170.2086,69.9445952 168.765491,69.9125261 C167.514796,69.9018364 166.352309,69.6399427 165.277994,69.1268372 C164.203679,68.6137316 163.364551,67.9162393 162.760583,67.0343391 C162.156615,66.152439 161.843946,65.1396052 161.822566,63.9958075 L166.729114,64.0278764 C166.750493,65.567193 167.52014,66.3261502 169.038077,66.3047708 C169.690148,66.3047708 170.246004,66.1577897 170.705662,65.863823 C171.165319,65.5698563 171.453936,65.1556367 171.571523,64.6211517 Z M188.167197,47.9292708 L187.413577,52.2425426 L190.18754,52.2425426 L189.530127,55.9946081 L186.756164,55.9946081 L185.409268,63.9637385 C185.334441,64.5089132 185.369182,64.9204604 185.513493,65.1983926 C185.657803,65.4763247 186.018575,65.6259783 186.595819,65.6473577 C186.820303,65.6580474 187.279953,65.6313235 187.974783,65.5671853 L187.589956,69.4795955 C186.702711,69.7682173 185.756687,69.9018366 184.751855,69.8804572 C183.116331,69.8590778 181.892379,69.3780485 181.079962,68.4373551 C180.267545,67.4966616 179.936169,66.2192618 180.085825,64.6051173 L181.496858,55.9946081 L179.34824,55.9946081 L179.989618,52.2425426 L182.138237,52.2425426 L182.891857,47.9292708 L188.167197,47.9292708 Z M197.996326,69.9125261 C196.446319,69.9018364 195.064697,69.5357197 193.851416,68.814165 C192.638135,68.0926104 191.721507,67.0877938 191.101505,65.7996851 C190.481502,64.5115764 190.235643,63.0925402 190.363919,61.5425339 L190.412022,61.0935688 C190.700644,58.2394193 191.692099,55.9812543 193.386416,54.3190062 C195.080733,52.6567581 197.157176,51.8577151 199.615807,51.9218533 C201.101675,51.9432327 202.37373,52.3200389 203.43201,53.0522832 C204.49029,53.7845276 205.265282,54.794689 205.757008,56.0827976 C206.248734,57.3709063 206.409077,58.8166664 206.238042,60.4201212 L205.933387,62.6168433 L195.60719,62.6168433 C195.628569,63.5254676 195.885118,64.2630458 196.376844,64.8295998 C196.868571,65.3961538 197.58477,65.6954609 198.525463,65.72753 C200.05409,65.7702888 201.427696,65.1823642 202.646321,63.9637385 L204.859078,66.8980462 C204.207006,67.8280499 203.295723,68.5576109 202.125201,69.086751 C200.954679,69.6158911 199.674607,69.8911467 198.284946,69.9125261 L197.996326,69.9125261 Z M199.279083,56.0747804 C198.530804,56.053401 197.881415,56.2885709 197.330895,56.780297 C196.780376,57.2720231 196.302019,58.0951176 195.89581,59.249605 L201.17115,59.249605 L201.267357,58.7846055 C201.331495,58.410466 201.342185,58.0577112 201.299426,57.7263306 C201.117701,56.6573607 200.44426,56.1068495 199.279083,56.0747804 Z M214.832517,52.2265081 L214.479759,54.310989 C215.869419,52.6754651 217.558366,51.8790945 219.54665,51.9218533 C220.594241,51.9432327 221.454749,52.189092 222.1282,52.6594388 C222.801651,53.1297855 223.250611,53.7551235 223.475095,54.5354715 C225.003722,52.7502918 226.762151,51.8790945 228.750435,51.9218533 C230.35389,51.9539224 231.543101,52.5552089 232.318104,53.7257309 C233.093107,54.8962529 233.373707,56.5451142 233.159913,58.6723642 L231.348019,69.5918367 L226.056644,69.5918367 L227.900608,58.6563297 L227.964746,57.7102961 C227.964746,56.652016 227.467682,56.1068495 226.47354,56.0747804 C225.543537,56.0747804 224.677684,56.5504649 223.875957,57.501848 L221.775441,69.5918367 L216.484067,69.5918367 L218.311996,58.6883987 L218.376134,57.7263306 C218.376134,56.6252916 217.879071,56.0747804 216.884929,56.0747804 C215.976304,56.0747804 215.121141,56.5504649 214.319414,57.501848 L212.18683,69.5918367 L206.91149,69.5918367 L209.92597,52.2425426 L214.832517,52.2265081 Z M244.255765,64.6211517 C244.394731,63.9156316 243.849565,63.3864995 242.620249,63.0337394 L241.481802,62.745119 C239.621795,62.2533929 238.258879,61.5639176 237.393013,60.6766727 C236.527147,59.7894277 236.120945,58.7365082 236.174393,57.5178825 C236.227842,55.8502895 236.968092,54.4953905 238.395167,53.4531449 C239.822242,52.4108993 241.561964,51.9004739 243.614386,51.9218533 C245.656119,51.9432327 247.310325,52.4616753 248.577054,53.4771966 C249.843784,54.492718 250.487828,55.8609789 250.509208,57.5820204 L245.249902,57.5659859 C245.292661,56.1977045 244.688702,55.513574 243.438007,55.513574 C242.903522,55.513574 242.406459,55.6712447 241.946802,55.9865908 C241.487145,56.3019369 241.214562,56.7215013 241.129044,57.2452966 C240.947319,58.1111621 241.711621,58.7044315 243.421973,59.0251225 C244.907841,59.3778825 246.056966,59.7867574 246.869383,60.2517593 C247.681801,60.7167612 248.301794,61.2913238 248.729382,61.9754645 C249.15697,62.6596053 249.354726,63.4826997 249.322657,64.4447726 C249.290588,65.492363 248.948523,66.4276976 248.296451,67.2508044 C247.644379,68.0739112 246.701028,68.7313178 245.466367,69.223044 C244.231707,69.7147701 242.892843,69.9445952 241.449733,69.9125261 C240.199039,69.9018364 239.036551,69.6399427 237.962237,69.1268372 C236.887922,68.6137316 236.048793,67.9162393 235.444825,67.0343391 C234.840857,66.152439 234.528188,65.1396052 234.506809,63.9958075 L239.413356,64.0278764 C239.434735,65.567193 240.204382,66.3261502 241.722319,66.3047708 C242.374391,66.3047708 242.930247,66.1577897 243.389904,65.863823 C243.849561,65.5698563 244.138178,65.1556367 244.255765,64.6211517 Z" id="Systems" fill="#FFFFFF"></path>
                <path d="M61.7984694,38.5556296 C59.6061753,41.1465227 56.9609675,42.4057141 53.8627667,42.3332415 C50.9819835,42.2970053 48.8123696,41.291464 47.3538599,39.3165874 C45.8953501,37.3417109 45.329167,34.6965031 45.6552934,31.3808847 L48.8350099,12.3569399 L57.7762639,12.3569399 L54.5421933,31.489593 C54.4878389,32.0150189 54.4878389,32.4951422 54.5421933,32.9299774 C54.6690202,34.4156643 55.5477365,35.1856734 57.1783685,35.2400278 C59.0626544,35.3125004 60.6660851,34.569668 61.9887088,33.0115086 L65.6304354,12.3569399 L74.6260436,12.3569399 L69.5167556,41.7625232 L61.200574,41.7625232 L61.7984694,38.5556296 Z" id="u-copy-2" fill="#FFFFFF"></path>
                <path d="M92.6672658,5.04630972 L91.3899438,12.3569399 L96.0915758,12.3569399 L94.9773162,18.7163729 L90.2756841,18.7163729 L87.9928108,32.2233737 C87.8659838,33.1473985 87.9248669,33.8449362 88.1694617,34.3160077 C88.4140565,34.7870791 89.0255343,35.0407292 90.0039135,35.0769654 C90.3843943,35.0950836 91.1634623,35.0497889 92.341141,34.9410801 L91.6888915,41.5722837 C90.1850864,42.0614733 88.5816557,42.2879466 86.8785511,42.2517103 C84.1064767,42.2154741 82.0319816,41.4001703 80.6550035,39.8057746 C79.2780254,38.2113789 78.7163716,36.0462944 78.9700255,33.3104563 L81.3616071,18.7163729 L77.7198806,18.7163729 L78.8069631,12.3569399 L82.4486897,12.3569399 L83.7260117,5.04630972 L92.6672658,5.04630972 Z" id="t-copy-4" fill="#FFFFFF"></path>
                <path d="M109.428992,15.5638335 C111.621286,13.0091767 114.148728,11.7499853 117.011393,11.7862216 C119.964648,11.8586941 122.15238,12.9367069 123.574654,15.0202922 C124.996927,17.1038775 125.508757,19.9302639 125.110158,23.4995362 L122.066327,41.7625232 L113.125072,41.7625232 L116.196081,23.3908279 C116.268553,22.7748114 116.286671,22.1950398 116.250435,21.6514958 C116.123608,19.8578006 115.127126,18.9337897 113.260958,18.8794353 C111.648444,18.843199 110.217133,19.4320295 108.966982,20.6459445 L105.216547,41.7625232 L96.2752928,41.7625232 L103.531569,0.0185528757 L112.472823,0.0185528757 L109.428992,15.5638335 Z" id="h-copy-2" fill="#FFFFFF"></path>
                <path d="M140.613042,42.3060645 C137.985913,42.2879463 135.644179,41.6674096 133.587771,40.4444356 C131.531363,39.2214616 129.977756,37.5183826 128.926905,35.3351476 C127.876053,33.1519125 127.459342,30.7467664 127.67676,28.1196371 L127.758291,27.3586793 C128.24748,22.5211377 129.927912,18.6937394 132.799636,15.8763697 C135.67136,13.059 139.190755,11.7046899 143.357926,11.8133987 C145.876346,11.8496349 148.032372,12.4882895 149.826067,13.7293817 C151.619762,14.9704738 152.933307,16.6826117 153.766741,18.8658468 C154.600175,21.0490818 154.871943,23.4995226 154.582053,26.2172426 L154.065689,29.9405003 L136.56366,29.9405003 C136.599896,31.4805417 137.034724,32.7306741 137.868159,33.6909352 C138.701593,34.6511962 139.915489,35.1584964 141.509885,35.2128508 C144.100778,35.2853233 146.428923,34.2888409 148.494391,32.2233737 L152.244825,37.1967764 C151.139619,38.773054 149.595072,40.0095981 147.611136,40.9064457 C145.6272,41.8032933 143.457587,42.2698282 141.102229,42.3060645 L140.613042,42.3060645 Z M142.787207,18.8522582 C141.518938,18.816022 140.418278,19.2146149 139.485194,20.048049 C138.55211,20.8814832 137.741336,22.2765585 137.052847,24.2333169 L145.994101,24.2333169 L146.157163,23.4451821 C146.265872,22.8110474 146.28399,22.213158 146.211517,21.6514958 C145.903509,19.8396825 144.762084,18.9066126 142.787207,18.8522582 Z" id="e-copy-2" fill="#FFFFFF"></path>
                <path d="M168.753261,12.3297629 L168.128189,15.8627812 C170.483546,13.0725887 173.318991,11.7137491 176.63461,11.7862216 C179.35233,11.840576 181.377001,12.8506468 182.708684,14.8164642 C184.040366,16.7822817 184.525019,19.5950797 184.162657,23.2549426 L181.064471,41.7625232 L172.09604,41.7625232 L175.221402,23.2005885 C175.293875,22.5664538 175.311993,21.9866822 175.275757,21.4612564 C175.14893,19.7400337 174.134329,18.8794353 172.231925,18.8794353 C170.655648,18.843199 169.215278,19.5407367 167.910772,20.9720692 L164.241869,41.7625232 L155.300615,41.7625232 L160.409903,12.3569399 L168.753261,12.3297629 Z" id="n-copy-2" fill="#FFFFFF"></path>
                <path d="M203.427934,5.60289599 L202.150612,12.9135262 L206.852244,12.9135262 L205.737984,19.2729592 L201.036352,19.2729592 L198.753479,32.77996 C198.626652,33.7039848 198.685535,34.4015225 198.93013,34.8725939 C199.174724,35.3436654 199.786202,35.5973154 200.764581,35.6335517 C201.145062,35.6516698 201.92413,35.6063752 203.101809,35.4976664 L202.449559,42.12887 C200.945754,42.6180596 199.342324,42.8445329 197.639219,42.8082966 C194.867145,42.7720603 192.79265,41.9567566 191.415671,40.3623609 C190.038693,38.7679651 189.47704,36.6028807 189.730693,33.8670426 L192.122275,19.2729592 L188.480548,19.2729592 L189.567631,12.9135262 L193.209358,12.9135262 L194.48668,5.60289599 L203.427934,5.60289599 Z" id="t-copy-3" fill="#FFFFFF"></path>
                <path d="M216.683818,42.3191095 L207.715387,42.3191095 L212.824675,12.9135262 L221.793106,12.9135262 L216.683818,42.3191095 Z M213.61281,5.49418773 C213.576574,4.171564 214.043109,3.06637445 215.012429,2.17858592 C215.981749,1.29079739 217.154881,0.846909787 218.531859,0.846909787 C219.926955,0.846909787 221.091028,1.24550274 222.024111,2.0427006 C222.957195,2.83989847 223.441848,3.8816755 223.478084,5.16806296 C223.514321,6.50880483 223.052315,7.61852384 222.092054,8.4972533 C221.131793,9.37598277 219.954132,9.81534091 218.559036,9.81534091 C217.200176,9.81534091 216.045162,9.42127742 215.09396,8.63313862 C214.142758,7.84499983 213.649046,6.79869333 213.61281,5.49418773 Z" id="i-copy-2" fill="#FFFFFF"></path>
                <g id="Group" transform="translate(224.304267, 0.018553)">
                    <polygon id="k-copy-3" fill="#FFFFFF" points="10.2560804 33.5750884 8.94125406 41.7711474 3.55271368e-15 41.7711474 7.25627609 0 16.1975301 0 12.0666164 22.2851925 13.153699 20.9806934 21.2796411 12.3655641 30.2931862 12.3655641"></polygon>
                    <path d="M13.3974284,26.9731408 L22.9938929,44.6108114 C27.3778172,38.5689258 30.7299999,34.4488212 33.0504409,32.2504977 C34.7662466,30.6249895 37.3691569,27.8585698 41.0251461,25.1359241 C44.7856499,22.3354454 46.3569711,21.1346616 48.0690749,20.0522411 C51.1188473,18.1241242 58.148404,14.3035527 63.3225506,12.0338693 C66.7719816,10.520747 70.0422749,9.13417952 73.1334304,7.87416697 C69.1296421,8.06659454 66.2489391,8.27584693 64.4913214,8.50192415 C62.7337036,8.72800137 61.0583181,8.99394565 59.4651649,9.299757 C55.0891778,10.6147742 51.9148036,11.6862633 49.9420423,12.5142242 C47.9692811,13.3421851 45.4239093,14.511675 42.3059271,16.0226938 C38.8102111,17.7582122 35.9623725,19.457086 33.7624113,21.1193153 C31.5624501,22.7815446 28.0867186,25.7583435 23.335217,30.0497122 L19.5419044,22.1166513 L13.3974284,26.9731408 Z" id="Path-2" fill="#71FE22" transform="translate(43.265429, 26.242489) rotate(-8.000000) translate(-43.265429, -26.242489) "></path>
                </g>
                <path d="M119.109462,58.7384045 L0,58.7384045" id="Line" stroke="#FFFFFF" stroke-width="2" stroke-linecap="square"></path>
            </g>
        </g>
    </g>
</svg>