<svg width="229px" height="143px" viewBox="0 0 229 143" version="1.1" xmlns="http://www.w3.org/2000/svg" xmlns:xlink="http://www.w3.org/1999/xlink">
    <g id="Mobile-(Designed)" stroke="none" stroke-width="1" fill="none" fill-rule="evenodd">
        <g id="Supervisor/App-Login" transform="translate(-92.000000, -520.000000)" stroke="#222F8F">
            <g id="Group-5" transform="translate(93.000000, 521.301291)">
                <path d="M220.31296,50.5262397 C220.142397,50.1807605 181.477119,3.10921637 181.477119,3.10921637 C178.210911,-0.855797487 172.024402,-1.0285371 167.55628,2.59099754 C163.260315,6.21213162 162.228965,12.4195615 165.49358,16.3861748 L179.414418,33.2842674 C180.273611,34.3175062 179.242261,35.8689638 177.866596,35.525084 L111.362829,15.0058574 C105.519041,13.2816602 99.1619699,16.9027942 98.1322136,23.2829638 C97.2714265,28.4555555 100.708198,33.4554076 105.692793,35.0068652 L142.982405,46.5612259 C140.576984,47.7672043 138.68644,50.0096203 137.997811,52.5943167 C136.62374,57.0791489 138.515877,61.5607821 141.951055,64.1486774 C139.201318,65.3546558 136.968054,67.5970719 136.108861,70.5272475 C134.733196,75.1832198 136.795897,80.0119317 140.749141,82.425488 C137.827247,83.804206 135.421826,86.5632414 134.905354,90.0116359 C134.046161,95.1842276 137.482932,100.18408 142.467527,101.737137 L180.78849,113.462638 C180.960647,113.462638 181.303368,113.635377 181.477119,113.635377 C198.660978,118.807969 216.704031,108.806665 222.031346,91.564693 L225.468118,80.0119317 C228.732732,69.8378885 226.671625,58.8033461 220.31296,50.5262397 Z" id="Stroke-1"></path>
                <path d="M119.888699,105.467641 L106.725774,120.549538 C106.042336,121.234718 105.187642,121.578103 104.332947,121.578103 C103.306997,121.578103 102.452303,121.234718 101.940121,120.549538 L88.7771961,105.467641 C87.9225019,104.440667 87.7496602,103.24041 88.2650138,102.040154 C88.7771961,100.841487 89.9744022,100.154718 91.1700227,100.154718 L96.2981878,100.154718 L100.914171,70.3343077 C101.085427,68.6205641 102.623559,67.4218974 104.332947,67.4218974 C106.042336,67.4218974 107.409212,68.6205641 107.751724,70.3343077 L112.367707,100.154718 L117.495872,100.154718 C118.691493,100.154718 119.719028,100.841487 120.400881,102.040154 C120.914649,103.24041 120.743393,104.610769 119.888699,105.467641 Z M117.667128,52.2923077 L97.297181,52.2923077 L86.6745532,52.2923077 L84.9286937,52.2923077 L84.9286937,49.8345641 C84.9286937,48.8218974 84.1104707,48 83.0987918,48 L17.782079,48 C12.829927,48 8.81492575,52.023641 8.81492575,56.9884103 L8.81492575,84.642 C8.81492575,85.5497436 8.14734458,86.2905641 7.25776491,86.4479487 C3.32046313,87.1426667 0.325069217,90.4350256 0,94.5 C0.325069217,98.5649744 3.32046313,101.857333 7.25776491,102.550462 C8.14734458,102.709436 8.81492575,103.448667 8.81492575,104.358 L8.81492575,132.01 C8.81492575,136.974769 12.829927,141 17.782079,141 L83.0987918,141 C84.1104707,141 84.9286937,140.178103 84.9286937,139.163846 L84.9286937,136.706103 L86.6745532,136.706103 L97.297181,136.706103 L117.667128,136.706103 C122.26884,136.706103 126,132.967026 126,128.35359 L126,94.5 L126,60.6448205 C126,56.0313846 122.26884,52.2923077 117.667128,52.2923077 Z" id="Stroke-3"></path>
            </g>
        </g>
    </g>
</svg>
